<?xml version="1.0" encoding="utf-8"?>
<!-- Generator: Adobe Illustrator 16.0.0, SVG Export Plug-In . SVG Version: 6.00 Build 0)  -->
<!DOCTYPE svg PUBLIC "-//W3C//DTD SVG 1.1//EN" "http://www.w3.org/Graphics/SVG/1.1/DTD/svg11.dtd">
<svg version="1.1" id="Layer_1" xmlns="http://www.w3.org/2000/svg" xmlns:xlink="http://www.w3.org/1999/xlink" x="0px" y="0px"
	 width="1024px" height="1024px" viewBox="0 0 1024 1024" enable-background="new 0 0 1024 1024" xml:space="preserve">
<g>
	<path fill="none" d="M1024,1024c-341.412,0-682.744,0-1024,0C0,682.593,0,341.256,0,0c341.408,0,682.742,0,1024,0
		C1024,341.408,1024,682.742,1024,1024z M302.658,736.646c-0.696,0.317-1.395,0.635-2.095,0.952
		c-2.955-3.928-6.064-7.747-8.836-11.8c-22.919-33.488-43.991-67.904-61.842-104.569c-15.243-31.304-26.504-63.851-32.575-97.453
		c-5.658-31.323-4.991-63.798-6.921-95.778c-0.912-15.133-9.542-24.854-22.882-25.126c-13.898-0.284-23.748,9.458-23.901,24.96
		c-0.115,11.563,0.779,23.173,1.865,34.704c3.562,37.837,4.979,75.395,16.682,112.766c11.253,35.934,27.747,68.889,44.005,102.035
		c12.367,25.222,29.958,47.878,45.146,71.726c21.477,33.715,49.871,59.195,86.975,74.926c10.273,4.354,20.013,10.336,29.281,16.624
		c19.003,12.894,40.434,19.245,62.503,22.883c23.146,3.811,46.618,5.712,69.987,8.062c19.704,1.981,39.422,3.749,58.28-5.262
		c4.162-1.989,9.219-2.352,13.931-2.891c44.251-5.066,75.989-30.47,104.097-62.638c14.949-17.106,30.581-33.837,47.521-48.923
		c19.84-17.667,42-32.701,62.139-50.056c36.069-31.081,66.648-66.758,82.533-112.513c10.923-31.467,19.806-63.644,29.491-95.536
		c0.778-2.566,0.891-5.382,1.029-8.093c0.741-14.533-5.472-23.695-19.846-26.578c-9.256-1.86-18.936-1.849-28.438-2.13
		c-34.376-1.019-68.888,2.54-103.091-4.189c-21.057-4.142-42.254-7.812-63.536-10.504c-34.166-4.32-68.619-6.538-102.657-11.611
		c-89.697-13.372-179.299-27.427-268.822-41.947c-56.926-9.232-110.815-27.779-161.85-54.979c-8.743-4.662-20.127-5.983-30.28-5.951
		c-11.723,0.039-19.923,10.547-20.103,21.915c-0.18,11.351,7.684,20.649,19.308,23.05c3.968,0.818,8.1,1.485,11.737,3.145
		c13.917,6.352,27.448,13.585,41.514,19.571c36.774,15.66,74.424,28.899,113.88,35.928c44.622,7.948,89.362,15.267,134.129,22.372
		c50.854,8.072,101.719,16.139,152.711,23.211c49.302,6.834,98.992,11.037,148.097,18.975c36.581,5.915,73.035,8.135,109.883,7.209
		c3.926-0.099,7.859-0.011,12.019-0.011c-9.597,53.221-24.653,102.193-65.891,141.492c-2.858-4.051-6.613-7.485-8-11.699
		c-3.36-10.221-8.864-18.034-18.379-23.475c-6.165-3.525-11.029-9.36-17.251-12.73c-20.888-11.323-41.25-24.475-63.448-32.32
		c-29.248-10.342-60.096-14.259-91.69-12.608c-22.792,1.189-45.526-0.312-60.904,20.816c-3.433-1.984-5.702-3.451-8.104-4.65
		c-16.955-8.478-32.276-21.174-52.344-21.841c-28.096-0.938-55.072,3.686-82.541,11.014c-37.623,10.035-56.632,35.024-65.851,69.062
		c-5.092,18.806-5.311,39.078-6.452,58.761C301.871,702.121,302.658,719.409,302.658,736.646z M863.853,361.49
		c-0.083,12.548,9.824,22.854,22.333,23.231c12.771,0.384,23.516-10.088,23.587-22.988c0.069-12.615-9.76-22.863-22.304-23.243
		C874.626,338.097,863.94,348.506,863.853,361.49z M259.456,288.925c-0.271-12.668-11.407-23.077-24.118-22.54
		c-12.258,0.518-22.481,11.303-22.217,23.441c0.265,12.216,10.885,22.571,23.138,22.56
		C249.117,312.376,259.729,301.644,259.456,288.925z"/>
	<path fill="#010101" d="M302.658,736.646c0-17.237-0.79-34.525,0.208-51.707c1.141-19.683,1.363-39.955,6.452-58.763
		c9.219-34.032,28.227-59.024,65.851-69.062c27.468-7.326,54.444-11.947,82.541-11.014c20.069,0.672,35.39,13.365,52.344,21.84
		c2.403,1.203,4.672,2.672,8.104,4.651c15.376-21.126,38.112-19.627,60.904-20.816c31.595-1.648,62.443,2.271,91.691,12.613
		c22.197,7.846,42.561,20.995,63.448,32.314c6.222,3.374,11.091,9.206,17.251,12.731c9.515,5.442,15.019,13.256,18.379,23.478
		c1.384,4.213,5.139,7.647,8,11.701c41.237-39.302,56.293-88.272,65.888-141.494c-4.157,0-8.091-0.085-12.016,0.011
		c-36.849,0.925-73.308-1.295-109.884-7.209c-49.104-7.938-98.798-12.14-148.097-18.975c-50.997-7.072-101.861-15.139-152.711-23.21
		c-44.767-7.105-89.507-14.424-134.129-22.374c-39.454-7.028-77.104-20.267-113.88-35.927
		c-14.065-5.988-27.596-13.219-41.515-19.571c-3.637-1.66-7.768-2.327-11.736-3.146c-11.624-2.4-19.49-11.699-19.308-23.051
		c0.18-11.367,8.38-21.875,20.103-21.914c10.155-0.032,21.54,1.292,30.28,5.951c51.031,27.2,104.924,45.747,161.85,54.979
		c89.523,14.518,179.125,28.575,268.823,41.947c34.037,5.073,68.491,7.293,102.656,11.61c21.283,2.689,42.48,6.363,63.536,10.504
		c34.203,6.729,68.716,3.173,103.092,4.189c9.501,0.282,19.182,0.273,28.435,2.131c14.376,2.885,20.587,12.047,19.849,26.578
		c-0.139,2.713-0.251,5.526-1.029,8.093c-9.686,31.892-18.568,64.065-29.491,95.535c-15.883,45.752-46.467,81.433-82.534,112.513
		c-20.139,17.352-42.299,32.387-62.139,50.056c-16.938,15.083-32.573,31.813-47.521,48.923
		c-28.106,32.171-59.846,57.571-104.097,62.636c-4.709,0.538-9.771,0.906-13.931,2.894c-18.863,9.01-38.576,7.239-58.28,5.261
		c-23.37-2.352-46.843-4.256-69.988-8.063c-22.072-3.633-43.499-9.984-62.502-22.881c-9.268-6.288-19.008-12.267-29.281-16.624
		c-37.104-15.733-65.498-41.211-86.975-74.928c-15.188-23.846-32.776-46.499-45.146-71.724
		c-16.259-33.149-32.752-66.102-44.006-102.032c-11.704-37.374-13.122-74.931-16.681-112.769
		c-1.084-11.531-1.98-23.142-1.866-34.704c0.153-15.501,10.003-25.244,23.902-24.96c13.342,0.275,21.968,9.996,22.88,25.127
		c1.931,31.979,1.263,64.455,6.923,95.775c6.071,33.605,17.332,66.152,32.575,97.457c17.85,36.664,38.923,71.077,61.842,104.565
		c2.774,4.054,5.884,7.872,8.836,11.798C301.266,737.281,301.961,736.964,302.658,736.646z M359.524,782.348
		c9.445,5.462,21.64,13.798,34.887,19.813c13.732,6.237,28.148,11.963,42.865,14.801c21.347,4.106,43.232,5.399,64.884,7.938
		c14.229,1.667,28.269,3.76,42.101-3.168c5.589-2.803,12.512-3.928,18.864-4.057c16.501-0.312,30.928-6.154,43.237-16.322
		c12.736-10.525,26.064-21.096,36.064-34.021c23.328-30.146,52.533-53.336,82.73-75.693c6.139-4.547,12.069-9.371,16.288-12.662
		c-5.741-10.557-10.485-19.35-15.301-28.102c-0.806-1.458-1.702-3.01-2.934-4.074c-20.387-17.552-43.259-30.427-68.923-38.96
		c-28.784-9.568-58.2-10.006-87.958-9.565c-9.017,0.136-13.146,3.773-14.533,12.077c-1.347,8.064-2.533,16.182-4.499,24.104
		c-1.795,7.242-4.066,14.445-6.946,21.319c-5.478,13.078-17.896,18.795-29.838,14.353c-12.629-4.699-17.949-17.008-13.427-31.088
		c6.053-18.849,6.611-19.744-9.273-29.601c-11.889-7.376-23.062-16.65-38.571-17.424c-27.793-1.39-53.186,6.869-78.101,17.384
		c-3.506,1.48-6.482,5.776-8.285,9.459c-8.833,18.051-12.085,37.813-12.76,57.393c-0.778,22.624,1.277,45.397,3.02,68.032
		C354.008,755.836,356.903,767.233,359.524,782.348z"/>
	<path fill="#010101" d="M863.853,361.49c0.088-12.984,10.773-23.391,23.613-23c12.544,0.38,22.374,10.628,22.305,23.243
		c-0.069,12.9-10.816,23.372-23.587,22.988C873.674,384.343,863.768,374.038,863.853,361.49z"/>
	<path fill="#010101" d="M259.456,288.925c0.273,12.719-10.339,23.448-23.197,23.461c-12.252,0.011-22.873-10.344-23.138-22.56
		c-0.264-12.139,9.959-22.924,22.217-23.441C248.049,265.848,259.186,276.257,259.456,288.925z"/>
	<path fill="none" d="M359.524,782.348c-2.621-15.114-5.519-26.512-6.407-38.063c-1.743-22.641-3.798-45.408-3.02-68.032
		c0.675-19.585,3.927-39.345,12.76-57.396c1.803-3.686,4.779-7.979,8.285-9.459c24.917-10.512,50.307-18.773,78.101-17.384
		c15.507,0.776,26.682,10.046,38.571,17.422c15.884,9.858,15.327,10.754,9.273,29.605c-4.522,14.074,0.795,26.384,13.427,31.085
		c11.941,4.44,24.357-1.277,29.838-14.354c2.88-6.875,5.151-14.075,6.946-21.317c1.966-7.92,3.152-16.043,4.499-24.106
		c1.384-8.305,5.517-11.941,14.533-12.075c29.755-0.442,59.174-0.003,87.958,9.568c25.664,8.527,48.536,21.408,68.923,38.954
		c1.231,1.067,2.128,2.619,2.934,4.08c4.821,8.752,9.563,17.542,15.301,28.102c-4.219,3.291-10.149,8.112-16.288,12.659
		c-30.197,22.357-59.402,45.55-82.73,75.693c-10,12.929-23.328,23.499-36.064,34.021c-12.31,10.171-26.736,16.009-43.237,16.325
		c-6.353,0.123-13.27,1.254-18.864,4.054c-13.832,6.928-27.872,4.838-42.101,3.168c-21.652-2.544-43.538-3.829-64.883-7.941
		c-14.719-2.832-29.135-8.56-42.867-14.797C381.165,796.146,368.97,787.807,359.524,782.348z"/>
</g>
</svg>
